<mxfile host="65bd71144e">
    <diagram id="bpbkTxAe3MsM5qXTKhsR" name="Page-1">
        <mxGraphModel dx="852" dy="475" grid="1" gridSize="10" guides="1" tooltips="1" connect="1" arrows="1" fold="1" page="1" pageScale="1" pageWidth="1100" pageHeight="850" math="0" shadow="0">
            <root>
                <mxCell id="0"/>
                <mxCell id="1" parent="0"/>
                <mxCell id="154" value="Observer Design Pattern" style="text;html=1;align=center;verticalAlign=middle;resizable=0;points=[];autosize=1;strokeColor=#C73500;fillColor=#fa6800;fontColor=#000000;fontSize=25;movable=0;rotatable=0;deletable=0;editable=0;connectable=0;" parent="1" vertex="1">
                    <mxGeometry x="65" y="40" width="300" height="40" as="geometry"/>
                </mxCell>
                <mxCell id="201" value="&lt;span style=&quot;font-size: 14px;&quot;&gt;Define an one-to-many dependency between objects so that when one object changes state, all its dependents are notified and updated automatially&lt;/span&gt;" style="shape=note2;boundedLbl=1;whiteSpace=wrap;html=1;size=25;verticalAlign=top;align=left;movable=0;resizable=0;rotatable=0;deletable=0;editable=0;connectable=0;" parent="1" vertex="1">
                    <mxGeometry x="420" y="25" width="590" height="70" as="geometry"/>
                </mxCell>
                <mxCell id="346" style="edgeStyle=none;html=1;exitX=1;exitY=0.25;exitDx=0;exitDy=0;dashed=1;" parent="1" edge="1">
                    <mxGeometry relative="1" as="geometry">
                        <mxPoint x="549" y="178" as="targetPoint"/>
                        <mxPoint x="145" y="178.25" as="sourcePoint"/>
                    </mxGeometry>
                </mxCell>
                <mxCell id="202" value="&lt;font style=&quot;font-size: 12px;&quot; color=&quot;#ffffff&quot;&gt;Client&lt;/font&gt;" style="html=1;fontSize=14;fontColor=#FF9933;movable=1;resizable=1;rotatable=1;deletable=1;editable=1;connectable=1;" parent="1" vertex="1">
                    <mxGeometry x="65" y="160" width="80" height="73" as="geometry"/>
                </mxCell>
                <mxCell id="260" value="&lt;font style=&quot;font-size: 12px;&quot; color=&quot;#ffffff&quot;&gt;Client&lt;/font&gt;" style="html=1;fontSize=14;fontColor=#FF9933;movable=1;resizable=1;rotatable=1;deletable=1;editable=1;connectable=1;" parent="1" vertex="1">
                    <mxGeometry x="80" y="980" width="80" height="30" as="geometry"/>
                </mxCell>
                <mxCell id="261" value="SimpleCoffe" style="swimlane;fontStyle=1;align=center;verticalAlign=top;childLayout=stackLayout;horizontal=1;startSize=26;horizontalStack=0;resizeParent=1;resizeParentMax=0;resizeLast=0;collapsible=1;marginBottom=0;fontSize=12;fillColor=#a20025;strokeColor=#6F0000;fontColor=#ffffff;movable=1;resizable=1;rotatable=1;deletable=1;editable=1;connectable=1;" parent="1" vertex="1">
                    <mxGeometry x="290" y="1110" width="160" height="70" as="geometry"/>
                </mxCell>
                <mxCell id="262" value="" style="line;strokeWidth=1;fillColor=none;align=left;verticalAlign=middle;spacingTop=-1;spacingLeft=3;spacingRight=3;rotatable=1;labelPosition=right;points=[];portConstraint=eastwest;strokeColor=inherit;fontSize=12;fontColor=#FFFFFF;movable=1;resizable=1;deletable=1;editable=1;connectable=1;" parent="261" vertex="1">
                    <mxGeometry y="26" width="160" height="8" as="geometry"/>
                </mxCell>
                <mxCell id="263" value="+Cost():double&#10;+Description():string" style="text;strokeColor=none;fillColor=none;align=left;verticalAlign=top;spacingLeft=4;spacingRight=4;overflow=hidden;rotatable=1;points=[[0,0.5],[1,0.5]];portConstraint=eastwest;fontSize=12;fontColor=#FFFFFF;movable=1;resizable=1;deletable=1;editable=1;connectable=1;" parent="261" vertex="1">
                    <mxGeometry y="34" width="160" height="36" as="geometry"/>
                </mxCell>
                <mxCell id="264" value="&lt;&lt;interface&gt;&gt;&#10;ICoffee" style="swimlane;fontStyle=1;align=center;verticalAlign=top;childLayout=stackLayout;horizontal=1;startSize=40;horizontalStack=0;resizeParent=1;resizeParentMax=0;resizeLast=0;collapsible=1;marginBottom=0;fontSize=12;fontColor=#ffffff;fillColor=#0050ef;strokeColor=#001DBC;movable=1;resizable=1;rotatable=1;deletable=1;editable=1;connectable=1;" parent="1" vertex="1">
                    <mxGeometry x="370" y="930" width="160" height="90" as="geometry"/>
                </mxCell>
                <mxCell id="265" value="" style="line;strokeWidth=1;fillColor=none;align=left;verticalAlign=middle;spacingTop=-1;spacingLeft=3;spacingRight=3;rotatable=1;labelPosition=right;points=[];portConstraint=eastwest;strokeColor=inherit;fontSize=12;fontColor=#FFFFFF;movable=1;resizable=1;deletable=1;editable=1;connectable=1;" parent="264" vertex="1">
                    <mxGeometry y="40" width="160" height="8" as="geometry"/>
                </mxCell>
                <mxCell id="266" value="+Cost():double&#10;+Description():string" style="text;strokeColor=none;fillColor=none;align=left;verticalAlign=top;spacingLeft=4;spacingRight=4;overflow=hidden;rotatable=1;points=[[0,0.5],[1,0.5]];portConstraint=eastwest;fontSize=12;fontColor=#FFFFFF;movable=1;resizable=1;deletable=1;editable=1;connectable=1;" parent="264" vertex="1">
                    <mxGeometry y="48" width="160" height="42" as="geometry"/>
                </mxCell>
                <mxCell id="267" value="Use" style="endArrow=open;endSize=12;dashed=1;html=1;fontSize=12;fontColor=#FFFFFF;entryX=-0.009;entryY=0.791;entryDx=0;entryDy=0;entryPerimeter=0;movable=1;resizable=1;rotatable=1;deletable=1;editable=1;connectable=1;" parent="1" edge="1">
                    <mxGeometry width="160" relative="1" as="geometry">
                        <mxPoint x="160" y="990" as="sourcePoint"/>
                        <mxPoint x="368.55999999999995" y="990.566" as="targetPoint"/>
                    </mxGeometry>
                </mxCell>
                <mxCell id="268" value="" style="endArrow=block;dashed=1;endFill=0;endSize=12;html=1;fontSize=12;fontColor=#FFFFFF;exitX=0.75;exitY=0;exitDx=0;exitDy=0;entryX=0.255;entryY=1.086;entryDx=0;entryDy=0;entryPerimeter=0;movable=1;resizable=1;rotatable=1;deletable=1;editable=1;connectable=1;" parent="1" edge="1">
                    <mxGeometry width="160" relative="1" as="geometry">
                        <mxPoint x="410" y="1110" as="sourcePoint"/>
                        <mxPoint x="410.79999999999995" y="1023.6120000000001" as="targetPoint"/>
                    </mxGeometry>
                </mxCell>
                <mxCell id="269" value="Implement" style="edgeLabel;html=1;align=center;verticalAlign=middle;resizable=1;points=[];fontSize=12;fontColor=#FFFFFF;movable=1;rotatable=1;deletable=1;editable=1;connectable=1;" parent="268" vertex="1" connectable="0">
                    <mxGeometry x="0.3538" relative="1" as="geometry">
                        <mxPoint as="offset"/>
                    </mxGeometry>
                </mxCell>
                <mxCell id="270" value="&lt;&lt;abstract&gt;&gt;&#10;CoffeeDecorator" style="swimlane;fontStyle=1;align=center;verticalAlign=top;childLayout=stackLayout;horizontal=1;startSize=40;horizontalStack=0;resizeParent=1;resizeParentMax=0;resizeLast=0;collapsible=1;marginBottom=0;strokeColor=#001DBC;fontSize=12;fontColor=#ffffff;fillColor=#0050ef;movable=1;resizable=1;rotatable=1;deletable=1;editable=1;connectable=1;" parent="1" vertex="1">
                    <mxGeometry x="570" y="1070" width="160" height="110" as="geometry"/>
                </mxCell>
                <mxCell id="271" value="-coffe:ICoffe" style="text;strokeColor=none;fillColor=none;align=left;verticalAlign=top;spacingLeft=4;spacingRight=4;overflow=hidden;rotatable=1;points=[[0,0.5],[1,0.5]];portConstraint=eastwest;fontSize=12;fontColor=#FFFFFF;movable=1;resizable=1;deletable=1;editable=1;connectable=1;" parent="270" vertex="1">
                    <mxGeometry y="40" width="160" height="26" as="geometry"/>
                </mxCell>
                <mxCell id="272" value="" style="line;strokeWidth=1;fillColor=none;align=left;verticalAlign=middle;spacingTop=-1;spacingLeft=3;spacingRight=3;rotatable=1;labelPosition=right;points=[];portConstraint=eastwest;strokeColor=inherit;fontSize=10;fontColor=#808080;movable=1;resizable=1;deletable=1;editable=1;connectable=1;" parent="270" vertex="1">
                    <mxGeometry y="66" width="160" height="8" as="geometry"/>
                </mxCell>
                <mxCell id="273" value="+Cost():double&#10;+Description():string" style="text;strokeColor=none;fillColor=none;align=left;verticalAlign=top;spacingLeft=4;spacingRight=4;overflow=hidden;rotatable=1;points=[[0,0.5],[1,0.5]];portConstraint=eastwest;fontSize=12;fontColor=#FFFFFF;movable=1;resizable=1;deletable=1;editable=1;connectable=1;" parent="270" vertex="1">
                    <mxGeometry y="74" width="160" height="36" as="geometry"/>
                </mxCell>
                <mxCell id="276" value="MilkDecorator" style="swimlane;fontStyle=1;align=center;verticalAlign=top;childLayout=stackLayout;horizontal=1;startSize=26;horizontalStack=0;resizeParent=1;resizeParentMax=0;resizeLast=0;collapsible=1;marginBottom=0;strokeColor=#A50040;fontSize=12;fontColor=#ffffff;fillColor=#d80073;movable=1;resizable=1;rotatable=1;deletable=1;editable=1;connectable=1;" parent="1" vertex="1">
                    <mxGeometry x="430" y="1250" width="160" height="100" as="geometry"/>
                </mxCell>
                <mxCell id="277" value="" style="line;strokeWidth=1;fillColor=none;align=left;verticalAlign=middle;spacingTop=-1;spacingLeft=3;spacingRight=3;rotatable=1;labelPosition=right;points=[];portConstraint=eastwest;strokeColor=inherit;fontSize=12;fontColor=#FFFFFF;movable=1;resizable=1;deletable=1;editable=1;connectable=1;" parent="276" vertex="1">
                    <mxGeometry y="26" width="160" height="8" as="geometry"/>
                </mxCell>
                <mxCell id="278" value="+Cost():double&#10;+Description():string&#10;" style="text;strokeColor=none;fillColor=none;align=left;verticalAlign=top;spacingLeft=4;spacingRight=4;overflow=hidden;rotatable=1;points=[[0,0.5],[1,0.5]];portConstraint=eastwest;fontSize=12;fontColor=#FFFFFF;movable=1;resizable=1;deletable=1;editable=1;connectable=1;" parent="276" vertex="1">
                    <mxGeometry y="34" width="160" height="66" as="geometry"/>
                </mxCell>
                <mxCell id="279" value="SugerDecorator" style="swimlane;fontStyle=1;align=center;verticalAlign=top;childLayout=stackLayout;horizontal=1;startSize=26;horizontalStack=0;resizeParent=1;resizeParentMax=0;resizeLast=0;collapsible=1;marginBottom=0;strokeColor=#A50040;fontSize=12;fontColor=#ffffff;fillColor=#d80073;movable=1;resizable=1;rotatable=1;deletable=1;editable=1;connectable=1;" parent="1" vertex="1">
                    <mxGeometry x="605" y="1250" width="160" height="100" as="geometry"/>
                </mxCell>
                <mxCell id="280" value="" style="line;strokeWidth=1;fillColor=none;align=left;verticalAlign=middle;spacingTop=-1;spacingLeft=3;spacingRight=3;rotatable=1;labelPosition=right;points=[];portConstraint=eastwest;strokeColor=inherit;fontSize=12;fontColor=#FFFFFF;movable=1;resizable=1;deletable=1;editable=1;connectable=1;" parent="279" vertex="1">
                    <mxGeometry y="26" width="160" height="8" as="geometry"/>
                </mxCell>
                <mxCell id="281" value="+Cost():double&#10;+Description():string&#10;" style="text;strokeColor=none;fillColor=none;align=left;verticalAlign=top;spacingLeft=4;spacingRight=4;overflow=hidden;rotatable=1;points=[[0,0.5],[1,0.5]];portConstraint=eastwest;fontSize=12;fontColor=#FFFFFF;movable=1;resizable=1;deletable=1;editable=1;connectable=1;" parent="279" vertex="1">
                    <mxGeometry y="34" width="160" height="66" as="geometry"/>
                </mxCell>
                <mxCell id="284" value="" style="endArrow=block;dashed=1;endFill=0;endSize=12;html=1;fontSize=7;fontColor=#FFFFFF;exitX=0.816;exitY=-0.064;exitDx=0;exitDy=0;exitPerimeter=0;entryX=0.191;entryY=1;entryDx=0;entryDy=0;entryPerimeter=0;movable=1;resizable=1;rotatable=1;deletable=1;editable=1;connectable=1;" parent="1" edge="1">
                    <mxGeometry width="160" relative="1" as="geometry">
                        <mxPoint x="560.56" y="1243.6" as="sourcePoint"/>
                        <mxPoint x="600.56" y="1180" as="targetPoint"/>
                        <Array as="points"/>
                    </mxGeometry>
                </mxCell>
                <mxCell id="285" value="extend" style="edgeLabel;html=1;align=center;verticalAlign=middle;resizable=1;points=[];fontSize=7;fontColor=#FFFFFF;movable=1;rotatable=1;deletable=1;editable=1;connectable=1;" parent="284" vertex="1" connectable="0">
                    <mxGeometry x="-0.4038" y="1" relative="1" as="geometry">
                        <mxPoint as="offset"/>
                    </mxGeometry>
                </mxCell>
                <mxCell id="286" value="" style="endArrow=block;dashed=1;endFill=0;endSize=12;html=1;fontSize=7;fontColor=#FFFFFF;exitX=0.183;exitY=-0.035;exitDx=0;exitDy=0;exitPerimeter=0;entryX=0.448;entryY=1.104;entryDx=0;entryDy=0;entryPerimeter=0;movable=1;resizable=1;rotatable=1;deletable=1;editable=1;connectable=1;" parent="1" edge="1">
                    <mxGeometry width="160" relative="1" as="geometry">
                        <mxPoint x="634.28" y="1246.5" as="sourcePoint"/>
                        <mxPoint x="641.6800000000001" y="1183.744" as="targetPoint"/>
                        <Array as="points"/>
                    </mxGeometry>
                </mxCell>
                <mxCell id="287" value="extend" style="edgeLabel;html=1;align=center;verticalAlign=middle;resizable=1;points=[];fontSize=7;fontColor=#FFFFFF;movable=1;rotatable=1;deletable=1;editable=1;connectable=1;" parent="286" vertex="1" connectable="0">
                    <mxGeometry x="-0.4038" y="1" relative="1" as="geometry">
                        <mxPoint y="-2" as="offset"/>
                    </mxGeometry>
                </mxCell>
                <mxCell id="317" value="" style="endArrow=block;dashed=1;endFill=0;endSize=12;html=1;fontSize=7;fontColor=#FFFFFF;entryX=1;entryY=0.5;entryDx=0;entryDy=0;exitX=0.5;exitY=0;exitDx=0;exitDy=0;movable=1;resizable=1;rotatable=1;deletable=1;editable=1;connectable=1;" parent="1" edge="1">
                    <mxGeometry width="160" relative="1" as="geometry">
                        <mxPoint x="650" y="1070" as="sourcePoint"/>
                        <mxPoint x="530" y="999" as="targetPoint"/>
                        <Array as="points">
                            <mxPoint x="650" y="999"/>
                        </Array>
                    </mxGeometry>
                </mxCell>
                <mxCell id="318" value="&lt;font style=&quot;font-size: 10px;&quot;&gt;Implement&lt;/font&gt;" style="edgeLabel;html=1;align=center;verticalAlign=middle;resizable=1;points=[];fontSize=7;fontColor=#FFFFFF;movable=1;rotatable=1;deletable=1;editable=1;connectable=1;" parent="317" vertex="1" connectable="0">
                    <mxGeometry x="0.5267" y="-1" relative="1" as="geometry">
                        <mxPoint x="35" y="1" as="offset"/>
                    </mxGeometry>
                </mxCell>
                <mxCell id="319" value="CreameDecorator" style="swimlane;fontStyle=1;align=center;verticalAlign=top;childLayout=stackLayout;horizontal=1;startSize=26;horizontalStack=0;resizeParent=1;resizeParentMax=0;resizeLast=0;collapsible=1;marginBottom=0;strokeColor=#A50040;fontSize=12;fontColor=#ffffff;fillColor=#d80073;movable=1;resizable=1;rotatable=1;deletable=1;editable=1;connectable=1;" parent="1" vertex="1">
                    <mxGeometry x="790" y="1250" width="160" height="100" as="geometry"/>
                </mxCell>
                <mxCell id="320" value="" style="line;strokeWidth=1;fillColor=none;align=left;verticalAlign=middle;spacingTop=-1;spacingLeft=3;spacingRight=3;rotatable=1;labelPosition=right;points=[];portConstraint=eastwest;strokeColor=inherit;fontSize=12;fontColor=#FFFFFF;movable=1;resizable=1;deletable=1;editable=1;connectable=1;" parent="319" vertex="1">
                    <mxGeometry y="26" width="160" height="8" as="geometry"/>
                </mxCell>
                <mxCell id="321" value="+Cost():double&#10;+Description():string&#10;" style="text;strokeColor=none;fillColor=none;align=left;verticalAlign=top;spacingLeft=4;spacingRight=4;overflow=hidden;rotatable=1;points=[[0,0.5],[1,0.5]];portConstraint=eastwest;fontSize=12;fontColor=#FFFFFF;movable=1;resizable=1;deletable=1;editable=1;connectable=1;" parent="319" vertex="1">
                    <mxGeometry y="34" width="160" height="66" as="geometry"/>
                </mxCell>
                <mxCell id="324" value="" style="endArrow=block;dashed=1;endFill=0;endSize=12;html=1;fontSize=7;fontColor=#FFFFFF;exitX=0.201;exitY=-0.02;exitDx=0;exitDy=0;exitPerimeter=0;entryX=0.654;entryY=1.04;entryDx=0;entryDy=0;entryPerimeter=0;movable=1;resizable=1;rotatable=1;deletable=1;editable=1;connectable=1;" parent="1" edge="1">
                    <mxGeometry width="160" relative="1" as="geometry">
                        <mxPoint x="822.1599999999999" y="1248" as="sourcePoint"/>
                        <mxPoint x="674.6400000000001" y="1181.44" as="targetPoint"/>
                        <Array as="points"/>
                    </mxGeometry>
                </mxCell>
                <mxCell id="325" value="extend" style="edgeLabel;html=1;align=center;verticalAlign=middle;resizable=1;points=[];fontSize=7;fontColor=#FFFFFF;movable=1;rotatable=1;deletable=1;editable=1;connectable=1;" parent="324" vertex="1" connectable="0">
                    <mxGeometry x="-0.4038" y="1" relative="1" as="geometry">
                        <mxPoint y="-2" as="offset"/>
                    </mxGeometry>
                </mxCell>
                <mxCell id="329" value="ConcreteSubject" style="swimlane;fontStyle=1;align=center;verticalAlign=top;childLayout=stackLayout;horizontal=1;startSize=26;horizontalStack=0;resizeParent=1;resizeParentMax=0;resizeLast=0;collapsible=1;marginBottom=0;" parent="1" vertex="1">
                    <mxGeometry x="270" y="320" width="190" height="162" as="geometry"/>
                </mxCell>
                <mxCell id="332" value="+Attach(observer:IObserver):void&#10;+Detach(observer:IObserver):void&#10;+Notify():void&#10;&#10;+GetState():string" style="text;strokeColor=none;fillColor=none;align=left;verticalAlign=top;spacingLeft=4;spacingRight=4;overflow=hidden;rotatable=0;points=[[0,0.5],[1,0.5]];portConstraint=eastwest;" parent="329" vertex="1">
                    <mxGeometry y="26" width="190" height="84" as="geometry"/>
                </mxCell>
                <mxCell id="331" value="" style="line;strokeWidth=1;fillColor=none;align=left;verticalAlign=middle;spacingTop=-1;spacingLeft=3;spacingRight=3;rotatable=0;labelPosition=right;points=[];portConstraint=eastwest;strokeColor=inherit;" parent="329" vertex="1">
                    <mxGeometry y="110" width="190" height="12" as="geometry"/>
                </mxCell>
                <mxCell id="361" value="&lt;span style=&quot;text-align: left;&quot;&gt;-observers:List&amp;lt;IObserver&amp;gt;&lt;/span&gt;&lt;br style=&quot;padding: 0px; margin: 0px;&quot;&gt;&lt;div style=&quot;text-align: left;&quot;&gt;&lt;span style=&quot;background-color: initial;&quot;&gt;-State:string&lt;/span&gt;&lt;/div&gt;" style="text;html=1;align=center;verticalAlign=middle;resizable=0;points=[];autosize=1;strokeColor=none;fillColor=none;" vertex="1" parent="329">
                    <mxGeometry y="122" width="190" height="40" as="geometry"/>
                </mxCell>
                <mxCell id="339" value="" style="endArrow=block;dashed=1;endFill=0;endSize=12;html=1;exitX=0.5;exitY=0;exitDx=0;exitDy=0;entryX=0.5;entryY=0.963;entryDx=0;entryDy=0;entryPerimeter=0;" parent="1" edge="1">
                    <mxGeometry width="160" relative="1" as="geometry">
                        <mxPoint x="365" y="320" as="sourcePoint"/>
                        <mxPoint x="365" y="240.00199999999995" as="targetPoint"/>
                    </mxGeometry>
                </mxCell>
                <mxCell id="340" value="" style="endArrow=block;dashed=1;endFill=0;endSize=12;html=1;entryX=0.5;entryY=1;entryDx=0;entryDy=0;exitX=0.5;exitY=0;exitDx=0;exitDy=0;" parent="1" edge="1">
                    <mxGeometry width="160" relative="1" as="geometry">
                        <mxPoint x="640" y="320" as="sourcePoint"/>
                        <mxPoint x="640" y="240" as="targetPoint"/>
                    </mxGeometry>
                </mxCell>
                <mxCell id="345" value="Use" style="endArrow=open;endSize=12;dashed=1;html=1;entryX=0;entryY=0.5;entryDx=0;entryDy=0;" parent="1" edge="1">
                    <mxGeometry width="160" relative="1" as="geometry">
                        <mxPoint x="140" y="214.66" as="sourcePoint"/>
                        <mxPoint x="285" y="215" as="targetPoint"/>
                    </mxGeometry>
                </mxCell>
                <mxCell id="353" value="&lt;&lt;interface&gt;&gt;&#10;ISubject" style="swimlane;fontStyle=1;align=center;verticalAlign=top;childLayout=stackLayout;horizontal=1;startSize=40;horizontalStack=0;resizeParent=1;resizeParentMax=0;resizeLast=0;collapsible=1;marginBottom=0;" parent="1" vertex="1">
                    <mxGeometry x="285" y="140" width="160" height="102" as="geometry"/>
                </mxCell>
                <mxCell id="355" value="" style="line;strokeWidth=1;fillColor=none;align=left;verticalAlign=middle;spacingTop=-1;spacingLeft=3;spacingRight=3;rotatable=0;labelPosition=right;points=[];portConstraint=eastwest;strokeColor=inherit;" parent="353" vertex="1">
                    <mxGeometry y="40" width="160" height="8" as="geometry"/>
                </mxCell>
                <mxCell id="356" value="+Attach(observer:IObserver):void&#10;+Detach(observer:IObserver):void&#10;+Notify():void" style="text;strokeColor=none;fillColor=none;align=left;verticalAlign=top;spacingLeft=4;spacingRight=4;overflow=hidden;rotatable=0;points=[[0,0.5],[1,0.5]];portConstraint=eastwest;" parent="353" vertex="1">
                    <mxGeometry y="48" width="160" height="54" as="geometry"/>
                </mxCell>
                <mxCell id="357" value="&lt;&lt;interface&gt;&gt;&#10;IObserver" style="swimlane;fontStyle=1;align=center;verticalAlign=top;childLayout=stackLayout;horizontal=1;startSize=40;horizontalStack=0;resizeParent=1;resizeParentMax=0;resizeLast=0;collapsible=1;marginBottom=0;fillColor=#fa6800;fontColor=#000000;strokeColor=#C73500;" parent="1" vertex="1">
                    <mxGeometry x="550" y="140" width="160" height="100" as="geometry"/>
                </mxCell>
                <mxCell id="358" value="" style="line;strokeWidth=1;fillColor=none;align=left;verticalAlign=middle;spacingTop=-1;spacingLeft=3;spacingRight=3;rotatable=0;labelPosition=right;points=[];portConstraint=eastwest;strokeColor=inherit;" parent="357" vertex="1">
                    <mxGeometry y="40" width="160" height="8" as="geometry"/>
                </mxCell>
                <mxCell id="359" value="+Update():void" style="text;strokeColor=none;fillColor=none;align=left;verticalAlign=top;spacingLeft=4;spacingRight=4;overflow=hidden;rotatable=0;points=[[0,0.5],[1,0.5]];portConstraint=eastwest;" parent="357" vertex="1">
                    <mxGeometry y="48" width="160" height="52" as="geometry"/>
                </mxCell>
                <mxCell id="360" value="" style="group" parent="1" vertex="1" connectable="0">
                    <mxGeometry x="465" y="320" width="255" height="86" as="geometry"/>
                </mxCell>
                <mxCell id="333" value="ConcreteObserver" style="swimlane;fontStyle=1;align=center;verticalAlign=top;childLayout=stackLayout;horizontal=1;startSize=26;horizontalStack=0;resizeParent=1;resizeParentMax=0;resizeLast=0;collapsible=1;marginBottom=0;" parent="360" vertex="1">
                    <mxGeometry x="95" width="160" height="86" as="geometry"/>
                </mxCell>
                <mxCell id="334" value="-subject:ConcreteSubject" style="text;strokeColor=none;fillColor=none;align=left;verticalAlign=top;spacingLeft=4;spacingRight=4;overflow=hidden;rotatable=0;points=[[0,0.5],[1,0.5]];portConstraint=eastwest;" parent="333" vertex="1">
                    <mxGeometry y="26" width="160" height="26" as="geometry"/>
                </mxCell>
                <mxCell id="335" value="" style="line;strokeWidth=1;fillColor=none;align=left;verticalAlign=middle;spacingTop=-1;spacingLeft=3;spacingRight=3;rotatable=0;labelPosition=right;points=[];portConstraint=eastwest;strokeColor=inherit;" parent="333" vertex="1">
                    <mxGeometry y="52" width="160" height="8" as="geometry"/>
                </mxCell>
                <mxCell id="336" value="+Update():void" style="text;strokeColor=none;fillColor=none;align=left;verticalAlign=top;spacingLeft=4;spacingRight=4;overflow=hidden;rotatable=0;points=[[0,0.5],[1,0.5]];portConstraint=eastwest;" parent="333" vertex="1">
                    <mxGeometry y="60" width="160" height="26" as="geometry"/>
                </mxCell>
                <mxCell id="352" value="" style="endArrow=diamondThin;endFill=0;endSize=24;html=1;dashed=1;" parent="360" edge="1">
                    <mxGeometry width="160" relative="1" as="geometry">
                        <mxPoint y="42.79000000000002" as="sourcePoint"/>
                        <mxPoint x="90" y="42.5" as="targetPoint"/>
                    </mxGeometry>
                </mxCell>
            </root>
        </mxGraphModel>
    </diagram>
</mxfile>